<svg width="100" height="101" viewBox="0 0 100 101" fill="none" xmlns="http://www.w3.org/2000/svg">
<path d="M78.7464 11.6846C70.3895 5.49473 60.4723 2.22422 50.0671 2.22422C40.5792 2.22422 31.1532 4.95527 24.1378 9.64141V2.22422C24.1378 1.27246 23.3653 0.5 22.4136 0.5C21.4618 0.5 20.6893 1.27246 20.6893 2.22422V13.0707C20.6893 13.7396 21.0755 14.3482 21.6807 14.6311C22.2858 14.9156 23.0014 14.8242 23.5153 14.3965C30.0911 8.93438 40.0171 5.67227 50.0671 5.67227C59.7274 5.67227 68.9343 8.71016 76.6946 14.4568C77.0032 14.6844 77.3618 14.7947 77.7188 14.7947C78.2464 14.7947 78.7671 14.5533 79.105 14.0965C79.6723 13.3311 79.512 12.2518 78.7464 11.6846Z" fill="#27FFA1"/>
<path d="M98.2757 21.1896H87.4292C86.7603 21.1896 86.155 21.5775 85.8706 22.1828C85.586 22.7879 85.6775 23.5035 86.1052 24.0174C91.5673 30.5916 94.8294 40.5174 94.8294 50.5691C94.8294 60.2295 91.7915 69.4363 86.0448 77.1949C85.4776 77.9604 85.638 79.0396 86.4034 79.607C86.712 79.8346 87.0706 79.9449 87.4276 79.9449C87.9552 79.9449 88.4759 79.7035 88.8155 79.2467C95.0052 70.8898 98.2759 60.9725 98.2759 50.5674C98.2759 41.0795 95.5448 31.6519 90.8587 24.6381H98.2759C99.2276 24.6381 100 23.8656 100 22.9139C99.9999 21.9621 99.2274 21.1896 98.2757 21.1896Z" fill="#27FFA1"/>
<path d="M78.3209 86.3707C77.7158 86.0879 77.002 86.1757 76.4863 86.6052C69.9106 92.0673 59.9846 95.3294 49.9346 95.3294C40.2725 95.3294 31.0656 92.2916 23.307 86.5449C22.5416 85.9777 21.4623 86.138 20.8949 86.9035C20.3277 87.6689 20.4881 88.7482 21.2535 89.3156C29.6104 95.5052 39.5277 98.7759 49.9328 98.7759C59.4207 98.7759 68.8467 96.0449 75.8621 91.3587V98.7759C75.8621 99.7277 76.6346 100.5 77.5863 100.5C78.5381 100.5 79.3106 99.7277 79.3106 98.7759V87.9295C79.3106 87.2603 78.9244 86.6517 78.3209 86.3707Z" fill="#27FFA1"/>
<path d="M13.8965 76.9845C8.43438 70.4087 5.17227 60.4845 5.17227 50.4328C5.17227 40.7724 8.21016 31.5656 13.9551 23.807C14.5223 23.0415 14.3619 21.9622 13.5965 21.3949C12.8311 20.8259 11.7518 20.988 11.1844 21.7535C4.99473 30.1103 1.72422 40.0275 1.72422 50.4328C1.72422 59.9207 4.45527 69.3466 9.14141 76.3621H1.72422C0.772461 76.3621 0 77.1345 0 78.0863C0 79.038 0.772461 79.8105 1.72422 79.8105H12.5707C13.2396 79.8105 13.8465 79.4244 14.1311 78.8191C14.4156 78.2138 14.3242 77.4982 13.8965 76.9845Z" fill="#27FFA1"/>
<path d="M51.7241 33.2551C51.7223 32.3033 50.9499 31.5344 49.9999 31.5344C49.9999 31.5344 49.9981 31.5344 49.9963 31.5344C49.0428 31.5361 48.2739 32.3101 48.2756 33.2619L48.317 50.5033C48.3188 51.4551 49.0913 52.224 50.0413 52.224C50.043 52.224 50.0448 52.224 50.0448 52.224C50.9983 52.2223 51.7672 51.4482 51.7655 50.4965L51.7241 33.2551Z" fill="#27FFA1"/>
<path d="M50.0415 48.7758H39.6554C38.7036 48.7758 37.9312 49.5482 37.9312 50.5C37.9312 51.4517 38.7036 52.2242 39.6554 52.2242H50.0415C50.9933 52.2242 51.7657 51.4517 51.7657 50.5C51.7657 49.5482 50.9933 48.7758 50.0415 48.7758Z" fill="#27FFA1"/>
<path d="M50 14.2932C30.0362 14.2932 13.7932 30.5346 13.7932 50.5C13.7932 70.4654 30.0362 86.7068 50 86.7068C69.9655 86.7068 86.2069 70.4654 86.2069 50.5C86.2069 30.5346 69.9655 14.2932 50 14.2932ZM50 83.2586C31.9362 83.2586 17.2415 68.5639 17.2415 50.5C17.2415 32.4361 31.9362 17.7414 50 17.7414C68.0639 17.7414 82.7586 32.4361 82.7586 50.5C82.7586 68.5639 68.0639 83.2586 50 83.2586Z" fill="#27FFA1"/>
<path d="M25.8619 48.7758H22.4137C21.4619 48.7758 20.6895 49.5482 20.6895 50.5C20.6895 51.4517 21.4619 52.2242 22.4137 52.2242H25.8619C26.8137 52.2242 27.5861 51.4517 27.5861 50.5C27.5861 49.5482 26.8137 48.7758 25.8619 48.7758Z" fill="#27FFA1"/>
<path d="M77.5862 48.7758H74.1379C73.1862 48.7758 72.4137 49.5482 72.4137 50.5C72.4137 51.4517 73.1862 52.2242 74.1379 52.2242H77.5862C78.5379 52.2242 79.3104 51.4517 79.3104 50.5C79.3104 49.5482 78.5379 48.7758 77.5862 48.7758Z" fill="#27FFA1"/>
<path d="M49.9999 72.9138C49.0481 72.9138 48.2756 73.6862 48.2756 74.638V78.0863C48.2756 79.038 49.0481 79.8105 49.9999 79.8105C50.9516 79.8105 51.7241 79.038 51.7241 78.0863V74.638C51.7241 73.6861 50.9516 72.9138 49.9999 72.9138Z" fill="#27FFA1"/>
<path d="M49.9999 21.1896C49.0481 21.1896 48.2756 21.9621 48.2756 22.9139V26.3621C48.2756 27.3139 49.0481 28.0863 49.9999 28.0863C50.9516 28.0863 51.7241 27.3139 51.7241 26.3621V22.9139C51.7241 21.9621 50.9516 21.1896 49.9999 21.1896Z" fill="#27FFA1"/>
<path d="M33.9774 66.5224C33.305 65.8482 32.2136 65.8482 31.5395 66.5224L29.2741 68.7863C28.6017 69.4588 28.6017 70.5502 29.2741 71.2242C29.6103 71.5603 30.0517 71.7293 30.4931 71.7293C30.9345 71.7293 31.3759 71.5621 31.712 71.2242L33.9774 68.9603C34.6499 68.2879 34.6499 67.1964 33.9774 66.5224Z" fill="#27FFA1"/>
<path d="M70.7242 29.7758C70.0499 29.1016 68.9603 29.1016 68.2863 29.7758L66.0224 32.0397C65.3482 32.7139 65.3482 33.8035 66.0224 34.4776C66.3585 34.8137 66.7999 34.9826 67.2413 34.9826C67.6827 34.9826 68.1242 34.8137 68.4603 34.4776L70.7242 32.2137C71.3982 31.5397 71.3982 30.45 70.7242 29.7758Z" fill="#27FFA1"/>
<path d="M70.7242 68.7861L68.4603 66.5223C67.7861 65.848 66.6964 65.848 66.0224 66.5223C65.3482 67.1965 65.3482 68.2861 66.0224 68.9602L68.2863 71.224C68.6224 71.5602 69.0638 71.7291 69.5052 71.7291C69.9466 71.7291 70.388 71.5619 70.7242 71.224C71.3982 70.55 71.3982 69.4604 70.7242 68.7861Z" fill="#27FFA1"/>
<path d="M33.9775 32.0397L31.7121 29.7758C31.0396 29.1016 29.9482 29.1016 29.2742 29.7758C28.6 30.45 28.6 31.5412 29.2742 32.2137L31.5397 34.4776C31.8758 34.8137 32.3172 34.9826 32.7586 34.9826C33.2 34.9826 33.6414 34.8137 33.9775 34.4776C34.6518 33.8035 34.6518 32.7121 33.9775 32.0397Z" fill="#27FFA1"/>
</svg>
