<svg width="100" height="101" viewBox="0 0 100 101" fill="none" xmlns="http://www.w3.org/2000/svg">
<g clip-path="url(#clip0)">
<path d="M21.2535 11.6846C29.6103 5.49473 39.5275 2.22422 49.9328 2.22422C59.4207 2.22422 68.8467 4.95703 75.8621 9.64141V2.22422C75.8621 1.27246 76.6346 0.5 77.5863 0.5C78.5381 0.5 79.3105 1.27246 79.3105 2.22422V13.0707C79.3105 13.7379 78.9244 14.3465 78.3191 14.6311C77.7139 14.9139 76.9984 14.8242 76.4846 14.3965C69.9088 8.93438 59.9828 5.67227 49.9328 5.67227C40.2725 5.67227 31.0656 8.71016 23.307 14.4568C22.9984 14.6844 22.6381 14.7947 22.2812 14.7947C21.7537 14.7947 21.233 14.5533 20.8951 14.0965C20.3275 13.3311 20.4879 12.2518 21.2535 11.6846Z" fill="#27FFA1"/>
<path d="M2.28882e-05 22.9154C2.28882e-05 21.9637 0.772485 21.1912 1.72424 21.1912H12.5707C13.2379 21.1912 13.8465 21.5773 14.1311 22.1826C14.4157 22.7877 14.3243 23.5033 13.8965 24.0172C8.43441 30.593 5.17229 40.5172 5.17229 50.5689C5.17229 60.2293 8.21019 69.4361 13.9569 77.1947C14.5241 77.9602 14.3637 79.0395 13.5983 79.6068C13.2897 79.8344 12.9293 79.9447 12.5725 79.9447C12.045 79.9447 11.5243 79.7033 11.1846 79.2482C4.99495 70.8914 1.72424 60.974 1.72424 50.5689C1.72424 41.0811 4.4553 31.6551 9.14144 24.6396H1.72424C0.772485 24.6396 2.28882e-05 23.8672 2.28882e-05 22.9154Z" fill="#27FFA1"/>
<path d="M21.681 86.3707C22.2863 86.0861 23.0017 86.1775 23.5156 86.6053C30.0898 92.0674 40.0156 95.3295 50.0656 95.3295C59.7277 95.3295 68.9345 92.2916 76.6931 86.5449C77.4585 85.976 78.5378 86.1381 79.1052 86.9035C79.6726 87.6689 79.5121 88.7482 78.7466 89.3156C70.3898 95.5053 60.4724 98.776 50.0673 98.776C40.5794 98.776 31.1535 96.0432 24.1381 91.3588V98.776C24.1381 99.7277 23.3656 100.5 22.4138 100.5C21.4621 100.5 20.6896 99.7277 20.6896 98.776V87.9311C20.6896 87.2639 21.0757 86.6551 21.681 86.3707Z" fill="#27FFA1"/>
<path d="M86.1051 76.9846C91.5672 70.4088 94.8293 60.4846 94.8293 50.4328C94.8293 40.7725 91.7914 31.5656 86.0447 23.807C85.4775 23.0416 85.6379 21.9623 86.4033 21.3949C87.1688 20.8277 88.248 20.9881 88.8154 21.7535C95.0051 30.1104 98.2758 40.0275 98.2758 50.4328C98.2758 59.9207 95.543 69.3467 90.8586 76.3621H98.2758C99.2275 76.3621 100 77.1346 100 78.0863C100 79.0381 99.2275 79.8106 98.2758 79.8106H87.4293C86.7621 79.8106 86.1518 79.4244 85.8707 78.8192C85.5861 78.2139 85.6775 77.4983 86.1051 76.9846Z" fill="#27FFA1"/>
<path d="M22.4173 45.3293H25.7466C26.5018 45.3293 27.1655 44.8586 27.3637 44.1844C27.9913 42.0465 28.6155 40.424 29.269 39.2258C29.6104 38.6016 29.4759 37.793 28.9432 37.2604L26.5864 34.9035C26.2622 34.5811 26.0813 34.1414 26.0813 33.6846C26.0813 33.2277 26.2624 32.7897 26.5864 32.4656L31.9675 27.0846C32.6417 26.4104 33.7313 26.4104 34.4053 27.0846L36.7622 29.4397C37.295 29.9725 38.1018 30.1068 38.7276 29.7672C39.9225 29.1154 41.5448 28.4914 43.6862 27.8604C44.3604 27.6621 44.8311 26.9982 44.8311 26.2432V22.9139C44.8311 21.9621 45.6036 21.1897 46.5553 21.1897H53.4518C54.4036 21.1897 55.1761 21.9621 55.1761 22.9139V26.2397C55.1761 26.9932 55.6468 27.6586 56.321 27.8568C58.4606 28.4879 60.0831 29.1119 61.2778 29.7619C61.9036 30.1033 62.7106 29.9688 63.2432 29.4361L65.5983 27.0811C66.2725 26.4068 67.3622 26.4068 68.0362 27.0811L73.4173 32.4621C73.7415 32.7846 73.9223 33.2242 73.9223 33.6811C73.9223 34.1379 73.7413 34.576 73.4173 34.9L71.0604 37.2568C70.5294 37.7897 70.395 38.5982 70.7346 39.2223C71.3882 40.4205 72.0104 42.043 72.6397 44.1809C72.838 44.8551 73.5018 45.3258 74.2569 45.3258H77.5862C78.538 45.3258 79.3104 46.0982 79.3104 47.05V53.9465C79.3104 54.8982 78.538 55.6707 77.5862 55.6707H74.2552C73.5016 55.6707 72.8362 56.1414 72.638 56.8156C72.0087 58.9518 71.3862 60.5742 70.7329 61.7742C70.3932 62.4 70.5261 63.207 71.0587 63.7396L73.4155 66.0965C73.7397 66.4189 73.9206 66.8586 73.9206 67.3154C73.9206 67.7723 73.7395 68.2104 73.4155 68.5344L68.0344 73.9154C67.3602 74.5896 66.2706 74.5896 65.5966 73.9154L63.2397 71.5604C62.7069 71.0275 61.8983 70.8949 61.2759 71.2328C60.0809 71.8846 58.4587 72.5086 56.3173 73.1396C55.643 73.3379 55.1723 74.0018 55.1723 74.7568V78.0861C55.1723 79.0379 54.3999 79.8103 53.4481 79.8103H46.5516C45.5999 79.8103 44.8274 79.0379 44.8309 78.0861V74.7604C44.8309 74.0068 44.3602 73.3414 43.6844 73.1432C41.5448 72.5121 39.9223 71.8896 38.7276 71.2381C38.1018 70.8967 37.2948 71.0312 36.7622 71.5639L34.4053 73.9189C33.7311 74.5932 32.6415 74.5932 31.9675 73.9189L26.5864 68.5379C26.2622 68.2154 26.0813 67.7758 26.0813 67.3189C26.0813 66.8621 26.2624 66.424 26.5864 66.1L28.9432 63.7432C29.476 63.2104 29.6087 62.4018 29.269 61.7777C28.6155 60.5795 27.9915 58.957 27.3637 56.8191C27.1655 56.1449 26.5016 55.6742 25.7466 55.6742H22.4173C21.4655 55.6742 20.693 54.9018 20.693 53.95V47.0535C20.6932 46.1018 21.4655 45.3293 22.4173 45.3293ZM24.1362 52.2225H25.7413C28.0137 52.2225 30.0395 53.7104 30.6671 55.8414C31.2257 57.7414 31.7567 59.1432 32.2928 60.1242C33.3583 62.0828 32.9825 64.5707 31.3757 66.1777L30.2395 67.3156L33.1827 70.2588L34.3188 69.1227C35.9257 67.5158 38.4137 67.1381 40.3723 68.2055C41.3516 68.7383 42.7534 69.2709 44.6552 69.8313C46.788 70.4588 48.2759 72.4848 48.2759 74.757V76.3623H51.7208V74.7588C51.7208 72.4863 53.2104 70.4605 55.3397 69.8346C57.2432 69.2725 58.6448 68.7414 59.6243 68.207C61.5811 67.1398 64.0692 67.5174 65.6761 69.1242L66.8122 70.2604L69.7553 67.3172L68.6175 66.1793C67.0124 64.5725 66.6346 62.0844 67.702 60.1258C68.2366 59.1447 68.7692 57.743 69.3278 55.843C69.9553 53.7119 71.9813 52.224 74.2536 52.224H75.8587V48.7758H74.2536C71.9811 48.7758 69.9536 47.2879 69.3278 45.1568C68.7692 43.2568 68.2382 41.8568 67.702 40.874C66.6366 38.9172 67.0141 36.4275 68.6192 34.8223L69.7571 33.6844L66.8139 30.7412L65.6778 31.8773C64.0725 33.4842 61.5829 33.8635 59.6243 32.7945C58.6468 32.2617 57.245 31.7291 55.3432 31.1688C53.2104 30.5412 51.7225 28.5152 51.7225 26.243V24.6377H48.2743V26.2395C48.2743 28.5119 46.7864 30.5377 44.6553 31.1637C42.7536 31.7258 41.3518 32.2568 40.3725 32.7912C38.4157 33.8584 35.926 33.4809 34.3208 31.874L33.1829 30.7379L30.2397 33.6811L31.3759 34.8189C32.9827 36.424 33.3604 38.9139 32.293 40.8725C31.7569 41.8535 31.2259 43.2553 30.6673 45.1553C30.0397 47.2863 28.0137 48.7742 25.7415 48.7742H24.1362V52.2225Z" fill="#27FFA1"/>
<path d="M50 36.7068C57.6051 36.7068 63.7932 42.8947 63.7932 50.5C63.7932 58.1053 57.6053 64.2932 50 64.2932C42.3948 64.2932 36.2069 58.1053 36.2069 50.5C36.2069 42.8947 42.3948 36.7068 50 36.7068ZM50 60.8449C55.7036 60.8449 60.345 56.2053 60.345 50.5C60.345 44.7947 55.7036 40.1551 50 40.1551C44.2965 40.1551 39.6551 44.7949 39.6551 50.5C39.6551 56.2051 44.2948 60.8449 50 60.8449Z" fill="#27FFA1"/>
</g>
<defs>
<clipPath id="clip0">
<rect width="100" height="100" fill="white" transform="matrix(-1 0 0 1 100 0.5)"/>
</clipPath>
</defs>
</svg>
