<svg width="100" height="101" viewBox="0 0 100 101" fill="none" xmlns="http://www.w3.org/2000/svg">
<path d="M31.7724 39.4851C31.5058 38.9619 30.9841 38.6185 30.3992 38.5803L16.3786 37.6453C15.652 37.5736 14.9804 38.0236 14.7153 38.7002L4.6078 64.5316C4.33613 65.2249 4.5578 66.0132 5.15116 66.4648C5.44783 66.6913 5.80447 66.8048 6.15935 66.8048C6.51091 66.8048 6.86266 66.6948 7.15934 66.4716L15.5487 60.1804L20.4334 61.157C21.2301 61.3154 22.0266 60.8787 22.3166 60.1172C24.9398 53.2459 28.0978 46.8565 31.6991 41.1287C32.0109 40.6316 32.0392 40.0066 31.7724 39.4851ZM19.7133 57.6137L15.4704 56.7654C15.0071 56.6738 14.5237 56.7838 14.1438 57.067L9.84584 60.29L17.3735 41.0515L27.4361 41.7214C24.5363 46.6296 21.9465 51.959 19.7133 57.6137Z" fill="#27FFA1"/>
<path d="M62.855 84.1234L61.9201 70.1011C61.88 69.5144 61.5367 68.9929 61.0134 68.7261C60.4918 68.4595 59.8668 68.486 59.3703 68.7993C53.6407 72.4007 47.2528 75.5588 40.3818 78.1818C39.6218 78.4701 39.1818 79.2668 39.342 80.065L40.3185 84.9498L34.0274 93.3374C33.5807 93.934 33.5825 94.754 34.034 95.3473C34.3557 95.7705 34.8506 96.0055 35.3606 96.0055C35.5639 96.0055 35.769 95.9672 35.9688 95.8938L61.8001 85.7863C62.4767 85.5216 62.9033 84.8482 62.855 84.1234ZM40.2084 90.6513L43.4314 86.3533C43.7148 85.9749 43.8247 85.4917 43.7314 85.0267L42.8831 80.7853C48.5393 78.5522 53.8672 75.9623 58.7752 73.0626L59.4469 83.1234L40.2084 90.6513Z" fill="#27FFA1"/>
<path d="M48.3297 50.501H37.1005C36.4957 50.501 35.939 50.8293 35.6439 51.3576L21.5499 76.6824C21.1833 77.3423 21.3066 78.1689 21.8499 78.6923C22.1683 78.9989 22.5864 79.1589 23.0065 79.1589C23.3032 79.1589 23.6015 79.0806 23.8681 78.9173L49.1928 63.5919C49.691 63.2903 49.9961 62.7503 49.9961 62.1671V52.1676C49.9963 51.2476 49.2496 50.501 48.3297 50.501ZM46.6633 61.2286L27.5165 72.816L38.079 53.8357V53.8339H46.6633V61.2286Z" fill="#27FFA1"/>
<path d="M99.9157 2.10623C99.8473 1.29472 99.2041 0.651364 98.3924 0.583005C97.8391 0.539646 42.9584 -3.29176 19.2035 58.927C18.9686 59.542 19.1168 60.2351 19.5819 60.7002L27.5062 68.6245C27.8779 68.9962 28.3978 69.1661 28.9195 69.0962C29.4378 69.0212 29.8911 68.7079 30.1445 68.2495L38.0838 53.834H46.6632V61.2484L32.161 70.4044C31.7327 70.6761 31.4511 71.1261 31.3944 71.6294C31.3378 72.1327 31.5144 72.6342 31.8728 72.9926L39.7971 80.917C40.1155 81.2353 40.5405 81.4053 40.9754 81.4053C41.1754 81.4053 41.377 81.3703 41.5703 81.2953C103.792 57.5387 99.9623 2.65798 99.9157 2.10623ZM91.173 31.6741C85.325 46.1429 71.9427 65.8132 41.3867 77.794L35.7038 72.111L49.2195 63.5783C49.7027 63.2716 49.996 62.74 49.996 62.1683V52.169C49.996 51.2491 49.2494 50.5024 48.3294 50.5024H37.0969C36.4887 50.5024 35.9303 50.8341 35.637 51.3657L28.2925 64.7013L22.7047 59.1117C43.5582 5.91264 88.0082 3.7361 96.6491 3.85778C96.7108 7.74426 96.3542 18.8533 91.173 31.6741Z" fill="#27FFA1"/>
<path d="M28.5478 74.1075C28.1861 73.6276 27.6095 73.3942 27.0445 73.4542C27.1029 72.8876 26.8695 72.3126 26.3912 71.9509C23.8781 70.0511 20.635 69.4195 17.4903 70.2159C14.1522 71.0642 11.4224 73.3407 10.0025 76.4655L0.150008 98.1422C-0.13827 98.7754 -0.00331087 99.5205 0.488286 100.01C0.806642 100.33 1.2332 100.499 1.66659 100.499C1.89999 100.499 2.13495 100.449 2.35663 100.349L24.0334 90.4944C27.1564 89.0763 29.4329 86.3464 30.2812 83.0084C31.0794 79.867 30.4478 76.6223 28.5478 74.1075ZM27.0513 82.1885C26.4546 84.54 24.8515 86.4615 22.6551 87.4615L5.02301 95.4758L13.0374 77.8422C14.0356 75.6458 15.9588 74.0425 18.3104 73.446C18.9287 73.2894 19.5502 73.2126 20.1635 73.2126C21.2018 73.2126 22.2166 73.4343 23.1416 73.8659L21.5551 76.6741C21.1867 77.3256 21.2984 78.144 21.8283 78.6723C22.3582 79.2039 23.1765 79.3139 23.8265 78.9455L26.6347 77.3573C27.3179 78.8272 27.473 80.5252 27.0513 82.1885Z" fill="#27FFA1"/>
<path d="M99.9156 2.10801C99.8473 1.29649 99.2039 0.653137 98.3924 0.584778C97.7424 0.533021 82.2935 -0.63689 64.1249 7.73256C63.63 7.95912 63.2783 8.41576 63.1816 8.95247C63.0849 9.48918 63.2583 10.039 63.6433 10.4239L90.0747 36.8553C90.3897 37.1704 90.8147 37.3436 91.253 37.3436C91.3512 37.3436 91.4497 37.3352 91.5479 37.3186C92.0846 37.2219 92.5395 36.8704 92.7678 36.3752C101.139 18.2067 99.9689 2.75624 99.9156 2.10801ZM90.713 32.7772L67.7214 9.78566C81.022 4.17107 92.6694 3.78436 96.6508 3.85115C96.7174 7.83588 96.3424 19.4467 90.713 32.7772Z" fill="#27FFA1"/>
<path d="M73.601 26.8978C67.9964 21.2932 58.8789 21.2932 53.2743 26.8978C47.6696 32.5025 47.6696 41.6199 53.2743 47.2246C56.0758 50.0277 59.7572 51.4277 63.4369 51.4277C67.1183 51.4277 70.7979 50.0261 73.601 47.2246C79.2057 41.6199 79.2057 32.5023 73.601 26.8978ZM71.2446 44.868C66.94 49.1726 59.9355 49.1726 55.6309 44.868C51.3262 40.5633 51.3262 33.5589 55.6309 29.2543C57.7824 27.1027 60.6105 26.0262 63.4371 26.0262C66.2636 26.0262 69.0917 27.1027 71.2448 29.2543C75.5493 33.5589 75.5493 40.5633 71.2446 44.868Z" fill="#27FFA1"/>
<path d="M66.7498 40.375C64.9233 42.2049 61.9503 42.2031 60.122 40.375C58.2954 38.5469 58.2954 35.5754 60.122 33.7471C61.9485 31.9206 64.9215 31.919 66.7498 33.7471C67.3998 34.3987 68.4565 34.3987 69.1063 33.7471C69.7578 33.0956 69.7578 32.0423 69.1063 31.3907C65.9815 28.2644 60.8919 28.2644 57.7656 31.3907C54.639 34.517 54.639 39.6051 57.7656 42.7314C59.3288 44.2947 61.3837 45.0763 63.4368 45.0763C65.4917 45.0763 67.5448 44.2947 69.1063 42.7314C69.7578 42.0799 69.7578 41.0266 69.1063 40.375C68.4563 39.7234 67.3998 39.7234 66.7498 40.375Z" fill="#27FFA1"/>
</svg>
