<svg width="21" height="20" viewBox="0 0 21 20" fill="none" xmlns="http://www.w3.org/2000/svg">
<path d="M10.3042 1.83333C12.9709 1.83333 13.3042 1.83333 14.3875 1.91667C17.1375 2 18.3875 3.33333 18.4709 6C18.5542 7.08333 18.5542 7.33333 18.5542 10C18.5542 12.6667 18.5542 13 18.4709 14C18.3875 16.6667 17.0542 18 14.3875 18.0833C13.3042 18.1667 13.0542 18.1667 10.3042 18.1667C7.63753 18.1667 7.3042 18.1667 6.3042 18.0833C3.5542 18 2.3042 16.6667 2.22087 14C2.13753 12.9167 2.13753 12.6667 2.13753 10C2.13753 7.33333 2.13753 7 2.22087 6C2.3042 3.33333 3.63753 2 6.3042 1.91667C7.3042 1.83333 7.63753 1.83333 10.3042 1.83333ZM10.3042 0C7.5542 0 7.22087 0 6.22087 0.0833333C2.5542 0.25 0.554199 2.25 0.387533 5.91667C0.304199 6.91667 0.304199 7.25 0.304199 10C0.304199 12.75 0.304199 13.0833 0.387533 14.0833C0.554199 17.75 2.5542 19.75 6.22087 19.9167C7.22087 20 7.5542 20 10.3042 20C13.0542 20 13.3875 20 14.3875 19.9167C18.0542 19.75 20.0542 17.75 20.2209 14.0833C20.3042 13.0833 20.3042 12.75 20.3042 10C20.3042 7.25 20.3042 6.91667 20.2209 5.91667C20.0542 2.25 18.0542 0.25 14.3875 0.0833333C13.3875 0 13.0542 0 10.3042 0ZM10.3042 4.83333C7.47087 4.83333 5.13753 7.16667 5.13753 10C5.13753 12.8333 7.47087 15.1667 10.3042 15.1667C13.1375 15.1667 15.4709 12.8333 15.4709 10C15.4709 7.16667 13.1375 4.83333 10.3042 4.83333ZM10.3042 13.3333C8.47087 13.3333 6.97087 11.8333 6.97087 10C6.97087 8.16667 8.47087 6.66667 10.3042 6.66667C12.1375 6.66667 13.6375 8.16667 13.6375 10C13.6375 11.8333 12.1375 13.3333 10.3042 13.3333ZM15.6375 3.5C14.9709 3.5 14.4709 4 14.4709 4.66667C14.4709 5.33333 14.9709 5.83333 15.6375 5.83333C16.3042 5.83333 16.8042 5.33333 16.8042 4.66667C16.8042 4 16.3042 3.5 15.6375 3.5Z" fill="#8794BA"/>
</svg>
