<svg width="100" height="101" viewBox="0 0 100 101" fill="none" xmlns="http://www.w3.org/2000/svg">
<g clip-path="url(#clip0)">
<path d="M71.1691 29.3243C67.9929 26.1481 62.8235 26.1481 59.6472 29.3243L28.8177 60.1537C27.2796 61.6918 26.4314 63.7383 26.4314 65.9147C26.4314 68.0911 27.2779 70.1376 28.8177 71.6757C30.4058 73.2638 32.4924 74.0587 34.5787 74.0587C36.665 74.0587 38.7516 73.2638 40.3397 71.6757L71.1691 40.8463C72.7072 39.3082 73.5554 37.2617 73.5554 35.0853C73.5554 32.9089 72.7087 30.8626 71.1691 29.3243ZM68.8126 38.4898L37.9832 69.3192C36.1051 71.1973 33.0506 71.1973 31.174 69.3192C30.2658 68.4093 29.7642 67.2012 29.7642 65.9147C29.7642 64.6282 30.2642 63.42 31.174 62.5102L62.0034 31.6808C62.9417 30.7409 64.1747 30.2726 65.4079 30.2726C66.6411 30.2726 67.8743 30.7425 68.8124 31.6808C69.7206 32.5907 70.2222 33.7988 70.2222 35.0853C70.2222 36.3718 69.7226 37.58 68.8126 38.4898Z" fill="#27FFA1"/>
<path d="M93.6647 10.3618L90.1301 6.82717C86.0539 2.75099 80.6146 0.506252 74.812 0.506252C69.0095 0.506252 63.5702 2.75099 59.4958 6.82717L49.5487 16.7743C42.3012 24.02 41.148 35.4919 46.8057 44.0525L47.9305 45.7539L57.5243 36.1601L57.1309 35.1468C56.7493 34.1687 56.5577 33.1421 56.5577 32.0921C56.5577 29.8507 57.4159 27.7593 58.9741 26.1995L68.9194 16.2524C70.4792 14.696 72.5706 13.8377 74.812 13.8377C77.0535 13.8377 79.1449 14.696 80.7062 16.2542L84.2424 19.7903C87.492 23.0382 87.4902 28.3241 84.2424 31.5737L74.2952 41.5209C72.0072 43.8039 68.4294 44.5572 65.3464 43.3623L64.3331 42.9707L54.7411 52.5644L56.4424 53.6893C60.0786 56.0922 64.2397 57.2672 68.381 57.2672C73.9853 57.2672 79.5511 55.1141 83.7174 50.9463L93.6645 40.9992C102.112 32.5523 102.112 18.8075 93.6647 10.3618ZM91.3115 38.6415L81.3644 48.5887C75.7236 54.2295 67.0579 55.5111 60.0671 51.9482L65.1915 46.8205C66.2347 47.1172 67.3095 47.2672 68.3993 47.2672C71.5306 47.2672 74.4603 46.0623 76.6482 43.8759L86.5953 33.9288C91.143 29.3812 91.143 21.9804 86.5953 17.4327L83.0591 13.8965C80.871 11.7102 77.9415 10.5053 74.8118 10.5053C71.6821 10.5053 68.7526 11.7102 66.563 13.8965L56.6176 23.8436C54.4295 26.03 53.2247 28.9612 53.2247 32.0925C53.2247 33.1841 53.3747 34.2589 53.6696 35.3021L48.5436 40.4265C44.9858 33.4374 46.2639 24.772 51.9032 19.1309L61.8503 9.18382C65.2966 5.73752 69.8991 3.83947 74.8118 3.83947C79.7246 3.83947 84.3273 5.73752 87.7767 9.18207L91.3113 12.7166C98.459 19.8639 98.459 31.4941 91.3115 38.6415Z" fill="#27FFA1"/>
<path d="M53.1832 56.9475L52.0584 55.2461L42.4664 64.8381L42.8646 65.853C44.0795 68.9475 43.3529 72.4604 41.0148 74.8001L31.0677 84.7472C29.5079 86.3037 27.4165 87.1619 25.1751 87.1619C22.9337 87.1619 20.8407 86.3037 19.2825 84.7472L15.7479 81.2126C14.1897 79.6544 13.3315 77.5614 13.3315 75.32C13.3315 73.0786 14.1897 70.9856 15.7479 69.4259L25.6933 59.4805C27.9829 57.1924 31.5775 56.4442 34.6404 57.6391L35.6537 58.0307L45.2474 48.4369L43.5461 47.3121C34.9872 41.6578 23.5153 42.8093 16.2678 50.0551L6.32092 60.0022C2.24474 64.0782 0 69.5192 0 75.32C0 81.1208 2.24474 86.5619 6.32092 90.6363L9.85707 94.1724C13.9333 98.2486 19.3725 100.493 25.1751 100.493C30.9761 100.493 36.4169 98.2486 40.4931 94.1724L50.4402 84.2253C57.6875 76.98 58.8407 65.5081 53.1832 56.9475ZM48.0838 81.8693L38.1367 91.8164C34.6904 95.2627 30.0876 97.1607 25.1751 97.1607C20.2624 97.1607 15.6596 95.2627 12.2135 91.8164L8.67738 88.2802C5.23108 84.8339 3.33302 80.2329 3.33302 75.3202C3.33302 70.4075 5.23108 65.8048 8.67738 62.3586L18.6245 52.4115C22.1507 48.8853 26.8601 47.0639 31.6029 47.0639C34.4458 47.0639 37.3021 47.7172 39.9218 49.0535L34.7958 54.1779C33.7542 53.883 32.6779 53.733 31.5863 53.733C28.455 53.733 25.5253 54.9379 23.3374 57.1242L13.392 67.0714C11.2039 69.2577 9.99906 72.1907 9.99906 75.3202C9.99906 78.4497 11.2039 81.3812 13.3936 83.5691L16.9282 87.1037C19.1163 89.29 22.0458 90.4949 25.1755 90.4949C28.305 90.4949 31.2347 89.29 33.4244 87.1037L43.3715 77.1566C46.3828 74.1437 47.4859 69.7458 46.3244 65.6913L51.4438 60.5737C55.0012 67.5628 53.7231 76.2284 48.0838 81.8693Z" fill="#27FFA1"/>
<path d="M79.5013 77.6515L70.3359 68.486C69.6859 67.8344 68.6294 67.8344 67.9794 68.486C67.3278 69.1376 67.3278 70.1907 67.9794 70.8425L77.1449 80.0079C77.4699 80.3329 77.8964 80.4962 78.323 80.4962C78.7496 80.4962 79.1761 80.3329 79.5011 80.0079C80.1531 79.3562 80.1531 78.303 79.5013 77.6515Z" fill="#27FFA1"/>
<path d="M78.3231 60.4987H73.3236C72.4037 60.4987 71.6572 61.2436 71.6572 62.1651C71.6572 63.0866 72.4037 63.8315 73.3236 63.8315H78.3231C79.243 63.8315 79.9895 63.0866 79.9895 62.1651C79.9895 61.2436 79.243 60.4987 78.3231 60.4987Z" fill="#27FFA1"/>
<path d="M61.6586 72.1638C60.7387 72.1638 59.9922 72.9087 59.9922 73.8302V78.8296C59.9922 79.7511 60.7387 80.496 61.6586 80.496C62.5785 80.496 63.325 79.7511 63.325 78.8296V73.8304C63.325 72.9087 62.5785 72.1638 61.6586 72.1638Z" fill="#27FFA1"/>
<path d="M32.0074 30.1575L22.842 20.9921C22.192 20.3405 21.1355 20.3405 20.4855 20.9921C19.8339 21.6436 19.8339 22.6968 20.4855 23.3485L29.651 32.514C29.976 32.839 30.4025 33.0023 30.8291 33.0023C31.2557 33.0023 31.6822 32.839 32.0072 32.514C32.659 31.8624 32.659 30.8093 32.0074 30.1575Z" fill="#27FFA1"/>
<path d="M26.6632 37.1683H21.6637C20.7438 37.1683 19.9973 37.9132 19.9973 38.8347C19.9973 39.7562 20.7438 40.5011 21.6637 40.5011H26.6632C27.5831 40.5011 28.3296 39.7562 28.3296 38.8347C28.3296 37.9132 27.5831 37.1683 26.6632 37.1683Z" fill="#27FFA1"/>
<path d="M38.3285 20.5038C37.4086 20.5038 36.6621 21.2487 36.6621 22.1702V27.1696C36.6621 28.0911 37.4086 28.8361 38.3285 28.8361C39.2484 28.8361 39.9949 28.0911 39.9949 27.1696V22.1702C39.9949 21.2487 39.2483 20.5038 38.3285 20.5038Z" fill="#27FFA1"/>
</g>
<defs>
<clipPath id="clip0">
<rect width="100" height="100" fill="white" transform="translate(0 0.5)"/>
</clipPath>
</defs>
</svg>
