<svg width="100" height="101" viewBox="0 0 100 101" fill="none" xmlns="http://www.w3.org/2000/svg">
<g clip-path="url(#clip0)">
<path d="M99.4383 42.5867C99.0799 42.2701 98.6049 42.1201 98.1283 42.1816L89.6184 43.2449C88.515 43.3732 87.5018 42.6516 87.2383 41.5482C86.31 37.6699 84.785 33.9783 82.7066 30.575C82.1184 29.6133 82.3283 28.3801 83.1949 27.7066L89.3582 22.9133C89.735 22.6184 89.9682 22.1766 89.9982 21.7C90.0283 21.2232 89.8516 20.7566 89.5133 20.4184L80.085 10.99C79.7467 10.6518 79.2799 10.465 78.8033 10.5051C78.325 10.5334 77.8834 10.7668 77.59 11.1451L72.7967 17.3084C72.1232 18.175 70.8916 18.3834 69.9283 17.7967C66.5283 15.7199 62.8367 14.1949 58.9551 13.265C57.85 13 57.1201 11.9768 57.2584 10.885L58.3217 2.37324C58.3801 1.89824 58.2334 1.42148 57.9166 1.06328C57.6 0.705078 57.1449 0.5 56.6666 0.5H43.3332C42.8549 0.5 42.3998 0.705078 42.085 1.06328C41.7684 1.42168 41.6199 1.89824 41.6799 2.37324L42.7449 10.8832C42.8799 11.9766 42.15 12.9982 41.0467 13.2633C37.165 14.1934 33.475 15.7184 30.0734 17.7949C29.1135 18.3832 27.8785 18.1732 27.2051 17.3066L22.4117 11.1434C22.1168 10.7666 21.675 10.5334 21.1984 10.5033C20.7184 10.4633 20.2551 10.65 19.9168 10.9883L10.4883 20.4166C10.15 20.7549 9.97324 21.2217 10.0033 21.6982C10.0334 22.175 10.2666 22.6166 10.6449 22.91L16.8082 27.7033C17.6732 28.3768 17.8832 29.61 17.2965 30.5717C15.2182 33.975 13.6932 37.6666 12.7648 41.5449C12.5016 42.65 11.4766 43.3783 10.3848 43.2416L1.87305 42.1783C1.39629 42.1166 0.921289 42.2666 0.563086 42.5834C0.204883 42.9002 0 43.3551 0 43.8334V57.1668C0 57.6451 0.205078 58.1002 0.561719 58.415C0.920117 58.7316 1.39512 58.885 1.87168 58.8201L10.3834 57.7568C11.475 57.6201 12.4984 58.3484 12.7635 59.4535C13.6918 63.3318 15.2168 67.0234 17.2951 70.4268C17.8834 71.3885 17.6734 72.6217 16.8068 73.2951L10.6436 78.0885C10.2668 78.3834 10.0336 78.8234 10.0035 79.3018C9.97344 79.7785 10.1502 80.2451 10.4885 80.5834L19.9152 90.0102C20.2535 90.3484 20.717 90.5301 21.1969 90.4951C21.6752 90.4668 22.1168 90.2334 22.4102 89.8551L27.2035 83.6918C27.8768 82.8252 29.1086 82.615 30.0719 83.2035C33.4719 85.2803 37.1635 86.8053 41.0451 87.7352C42.1502 88.0002 42.8801 89.0234 42.7434 90.1152L41.6783 98.627C41.6199 99.102 41.7666 99.5785 42.0834 99.9369C42.4 100.295 42.8551 100.5 43.3334 100.5H56.6668C57.1451 100.5 57.6002 100.295 57.9135 99.9385C58.2301 99.5801 58.3785 99.1035 58.3186 98.6285L57.2553 90.1186C57.1203 89.0252 57.8502 88.0035 58.9535 87.7385C62.8352 86.8084 66.5252 85.2834 69.9268 83.2068C70.8885 82.6186 72.1234 82.8285 72.7951 83.6951L77.5885 89.8584C77.8834 90.2352 78.3234 90.4684 78.8018 90.4984C79.2785 90.5334 79.7451 90.3518 80.0834 90.0135L89.5117 80.5852C89.85 80.2469 90.0268 79.7801 89.9967 79.3035C89.9684 78.8252 89.735 78.3836 89.3566 78.0902L83.1934 73.2969C82.3283 72.6234 82.1166 71.3902 82.7051 70.4285C84.7834 67.0252 86.3084 63.3336 87.2367 59.4553C87.5 58.352 88.5316 57.6303 89.6168 57.7586L98.1268 58.8219C98.6033 58.8869 99.0801 58.7336 99.4367 58.4168C99.7951 58.1002 100 57.6451 100 57.1668V43.8334C100 43.3551 99.7949 42.9 99.4383 42.5867ZM96.6666 55.2783L90.0266 54.4482C87.2416 54.1066 84.6516 55.9199 83.9898 58.6766C83.1432 62.2166 81.7531 65.585 79.8564 68.6898C78.3848 71.0998 78.9381 74.2115 81.1447 75.9266L85.818 79.5615L79.0596 86.3199L75.4262 81.6482C73.7111 79.4416 70.5994 78.8865 68.1895 80.36C65.0861 82.2533 61.7178 83.6449 58.1762 84.4934C55.4195 85.1533 53.6012 87.7484 53.9479 90.5283L54.7779 97.1666H45.2213L46.0496 90.5266C46.3963 87.7465 44.5779 85.1516 41.8213 84.4916C38.2797 83.6432 34.9113 82.2533 31.8096 80.3582C29.4012 78.8865 26.2879 79.4398 24.5729 81.6465L20.9379 86.3197L14.1795 79.5613L18.8527 75.9264C21.0594 74.2113 21.6127 71.0996 20.141 68.6897C18.2461 65.5846 16.8543 62.2164 16.0076 58.6764C15.3459 55.9164 12.7477 54.1014 9.9709 54.448L3.33262 55.2781V45.7215L9.9709 46.5498C12.7459 46.8965 15.3459 45.0799 16.0076 42.3215C16.8543 38.7832 18.2443 35.4148 20.141 32.3082C21.6127 29.8982 21.0576 26.7865 18.8527 25.0715L14.1795 21.4365L20.9379 14.6781L24.5729 19.3514C26.2879 21.558 29.3996 22.1131 31.8096 20.6396C34.9129 18.7463 38.2812 17.3547 41.8228 16.5063C44.5795 15.8463 46.3979 13.2512 46.0512 10.4713L45.2211 3.83301H54.7777L53.951 10.4713C53.6043 13.2514 55.4227 15.8463 58.1793 16.5063C61.7209 17.3547 65.0893 18.7445 68.191 20.6396C70.601 22.1113 73.7127 21.558 75.4293 19.3514L79.0627 14.6797L85.8211 21.4381L81.1479 25.073C78.9412 26.7881 78.3879 29.8998 79.8596 32.3098C81.7545 35.4148 83.1463 38.783 83.993 42.323C84.6547 45.083 87.2562 46.8998 90.0297 46.5514L96.6664 45.7213V55.2783H96.6666Z" fill="#27FFA1"/>
<path d="M50.0001 27.1666C37.1335 27.1666 26.6667 37.6332 26.6667 50.5C26.6667 63.3668 37.1335 73.8334 50.0001 73.8334C62.8667 73.8334 73.3335 63.3666 73.3335 50.5C73.3335 37.6334 62.8667 27.1666 50.0001 27.1666ZM50.0001 70.5C38.9718 70.5 30.0001 61.5283 30.0001 50.5C30.0001 39.4717 38.9718 30.5 50.0001 30.5C61.0285 30.5 70.0001 39.4717 70.0001 50.5C70.0001 61.5283 61.0285 70.5 50.0001 70.5Z" fill="#27FFA1"/>
<path d="M53.3334 48.8334H46.6668C44.8286 48.8334 43.3334 47.3385 43.3334 45.5C43.3334 43.6617 44.8284 42.1666 46.6668 42.1666H56.6668C57.5868 42.1666 58.3334 41.4199 58.3334 40.5C58.3334 39.5801 57.5868 38.8334 56.6668 38.8334H46.6668C42.9901 38.8334 40.0002 41.8234 40.0002 45.5C40.0002 49.1766 42.9903 52.1666 46.6668 52.1666H53.3334C55.1717 52.1666 56.6668 53.6615 56.6668 55.5C56.6668 57.3383 55.1719 58.8334 53.3334 58.8334H43.3334C42.4135 58.8334 41.6668 59.5801 41.6668 60.5C41.6668 61.4199 42.4135 62.1666 43.3334 62.1666H53.3334C57.0102 62.1666 60.0001 59.1766 60.0001 55.5C60.0001 51.8234 57.01 48.8334 53.3334 48.8334Z" fill="#27FFA1"/>
<path d="M49.9999 35.5C49.0799 35.5 48.3333 36.2467 48.3333 37.1666V63.8332C48.3333 64.7531 49.0799 65.4998 49.9999 65.4998C50.9198 65.4998 51.6665 64.7531 51.6665 63.8332V37.1666C51.6665 36.2467 50.9198 35.5 49.9999 35.5Z" fill="#27FFA1"/>
</g>
<defs>
<clipPath id="clip0">
<rect width="100" height="100" fill="white" transform="translate(0 0.5)"/>
</clipPath>
</defs>
</svg>
