<svg width="100" height="101" viewBox="0 0 100 101" fill="none" xmlns="http://www.w3.org/2000/svg">
<path d="M55.0001 68.8334H45.0001C44.0802 68.8334 43.3335 69.5801 43.3335 70.5C43.3335 71.4199 44.0802 72.1666 45.0001 72.1666H55.0001C55.92 72.1666 56.6667 71.4199 56.6667 70.5C56.6667 69.5801 55.92 68.8334 55.0001 68.8334Z" fill="#27FFA1"/>
<path d="M93.3316 2.16666H6.66836C2.9916 2.16666 0 5.15845 0 8.83502V63.8333C0 64.7532 0.74668 65.4999 1.6666 65.4999H98.3332C99.2531 65.4999 99.9998 64.7532 99.9998 63.8333V8.83502C100 5.15845 97.0084 2.16666 93.3316 2.16666ZM96.6666 62.1667H3.3334V8.83502C3.3334 6.99498 4.83008 5.50006 6.66836 5.50006H93.3316C95.1699 5.50006 96.6666 6.99498 96.6666 8.83502V62.1667Z" fill="#27FFA1"/>
<path d="M98.3334 62.1666H1.6666C0.74668 62.1666 0 62.9133 0 63.8333V72.1648C0 75.8416 2.9916 78.8332 6.66836 78.8332H93.3316C97.0084 78.8332 100 75.8416 100 72.1648L99.9998 63.8333C99.9998 62.9133 99.2533 62.1666 98.3334 62.1666ZM96.6666 72.165C96.6666 74.005 95.1699 75.4999 93.3316 75.4999H6.66836C4.83008 75.4999 3.3334 74.005 3.3334 72.165V65.5H96.6668L96.6666 72.165Z" fill="#27FFA1"/>
<path d="M91.6665 8.8334H8.33335C7.41343 8.8334 6.66675 9.58008 6.66675 10.5V63.8334C6.66675 64.7533 7.41343 65.5 8.33335 65.5H91.6667C92.5867 65.5 93.3333 64.7533 93.3333 63.8334V10.5C93.3333 9.58008 92.5867 8.8334 91.6665 8.8334ZM89.9999 62.1666H9.99995V12.1666H89.9999V62.1666Z" fill="#27FFA1"/>
<path d="M71.6665 88.8334H28.3333C25.5767 88.8334 23.3333 91.0768 23.3333 93.8334C23.3333 96.5901 25.5767 98.8334 28.3333 98.8334H71.6667C74.4234 98.8334 76.6667 96.5901 76.6667 93.8334C76.6667 91.0768 74.4232 88.8334 71.6665 88.8334ZM71.6665 95.5H28.3333C27.4134 95.5 26.6667 94.7518 26.6667 93.8334C26.6667 92.9151 27.4134 92.1668 28.3333 92.1668H71.6667C72.5867 92.1668 73.3333 92.9151 73.3333 93.8334C73.3333 94.7518 72.5867 95.5 71.6665 95.5Z" fill="#27FFA1"/>
<path d="M68.3333 88.8334C62.8032 88.8334 59.9999 84.9084 59.9999 77.1668C59.9999 76.2469 59.2532 75.5002 58.3333 75.5002H41.6667C40.7468 75.5002 40.0001 76.2469 40.0001 77.1668C40.0001 84.9084 37.1968 88.8334 31.6667 88.8334C30.7468 88.8334 30.0001 89.5801 30.0001 90.5C30.0001 91.42 30.7468 92.1666 31.6667 92.1666H68.3333C69.2532 92.1666 69.9999 91.42 69.9999 90.5C69.9999 89.5801 69.2532 88.8334 68.3333 88.8334ZM39.7848 88.8334C41.8366 86.5602 43.0448 83.175 43.2882 78.8334H56.7132C56.9548 83.175 58.1632 86.5602 60.2165 88.8334H39.7848Z" fill="#27FFA1"/>
<path d="M79.6401 51.2733L75.6169 47.25L77.8551 45.0117C78.2702 44.5967 78.4368 43.9934 78.2934 43.425C78.1501 42.8567 77.7184 42.4067 77.1567 42.2367L60.4901 37.2367C59.9018 37.06 59.2669 37.2217 58.8335 37.6551C58.3985 38.0885 58.2386 38.725 58.4151 39.3117L63.4151 55.9783C63.5835 56.5416 64.035 56.9733 64.6034 57.1166C65.17 57.2567 65.7751 57.0932 66.1901 56.6783L68.5467 54.3199L72.57 58.3449C72.8817 58.6582 73.3067 58.8332 73.7483 58.8332C74.1899 58.8332 74.6149 58.6582 74.9266 58.3449L79.6399 53.6299C80.2917 52.9783 80.2917 51.925 79.6401 51.2733ZM73.7483 54.81L70.085 51.1449C69.66 50.7199 69.1034 50.5082 68.5467 50.5082C67.9883 50.5082 67.4317 50.7215 67.0085 51.1432L65.8051 52.3465L62.4968 41.3182L73.5251 44.6266L72.235 45.9166C71.8799 46.2733 71.685 46.7467 71.685 47.25C71.685 47.7551 71.8817 48.2317 72.2383 48.585L76.1049 52.4516L73.7483 54.81Z" fill="#27FFA1"/>
<path d="M70 15.5H23.3334C22.4134 15.5 21.6667 16.2466 21.6667 17.1666V25.5C21.6667 26.4199 22.4134 27.1666 23.3334 27.1666H70C70.9199 27.1666 71.6666 26.4199 71.6666 25.5V17.1666C71.6666 16.2466 70.9199 15.5 70 15.5ZM68.3334 23.8334H25V18.8334H68.3334V23.8334Z" fill="#27FFA1"/>
<path d="M43.3336 33.8335H30.0002C29.0803 33.8335 28.3336 34.5801 28.3336 35.5001V42.1667C28.3336 43.0866 29.0803 43.8333 30.0002 43.8333H43.3336C44.2536 43.8333 45.0002 43.0866 45.0002 42.1667V35.5001C45.0002 34.5801 44.2536 33.8335 43.3336 33.8335ZM41.6668 40.5001H31.6668V37.1667H41.6668V40.5001Z" fill="#27FFA1"/>
<path d="M70 15.5H23.3334C22.4134 15.5 21.6667 16.2466 21.6667 17.1666V48.8332C21.6667 49.7531 22.4134 50.4998 23.3334 50.4998H63.0101C63.5384 50.4998 64.0333 50.2515 64.3468 49.8281C64.6619 49.4049 64.7585 48.8582 64.6068 48.3531L62.4968 41.3181L69.5218 43.4265C70.0269 43.5783 70.5736 43.4816 70.9951 43.1666C71.4183 42.8533 71.6667 42.3566 71.6667 41.8299L71.6666 17.1666C71.6666 16.2466 70.9199 15.5 70 15.5ZM68.3334 39.59L60.4882 37.2367C59.9 37.0599 59.265 37.2216 58.8316 37.655C58.3966 38.09 58.2367 38.725 58.4132 39.3134L60.7699 47.1668H25V18.8334H68.3334V39.59Z" fill="#27FFA1"/>
</svg>
