<svg width="15" height="15" viewBox="0 0 15 15" fill="none" xmlns="http://www.w3.org/2000/svg">
<path d="M0.400485 2.07652L1.85947 0.501301C2.39462 -0.081892 3.27339 -0.087903 3.8198 0.483265L7.00816 3.83813L10.1458 0.441178C10.681 -0.142015 11.5597 -0.148026 12.1062 0.429153L13.5877 1.98634C14.1341 2.55751 14.1397 3.49542 13.5989 4.07862L10.4613 7.47556L13.6496 10.8304C14.196 11.4016 14.2017 12.3395 13.6609 12.9227L12.1963 14.4919C11.6611 15.0751 10.7824 15.0811 10.2359 14.51L7.04759 11.1551L3.90993 14.558C3.37478 15.1412 2.49601 15.1473 1.9496 14.5761L0.473716 13.0129C-0.0726986 12.4417 -0.0783317 11.5038 0.456817 10.9206L3.59448 7.51765L0.411752 4.1688C-0.12903 3.59763 -0.140296 2.65972 0.400485 2.07652Z" fill="#FFAE43"/>
</svg>
